Coordinates
version=1
nRows=19
nColumns=33
inDegrees=yes

Units are S.I. units (second, meters, Newtons, ...)
Angles are in degrees.

endheader
time	ground_thorax_rot_x	ground_thorax_rot_y	ground_thorax_rot_z	ground_thorax_tx	ground_thorax_ty	ground_thorax_tz	clav_prot_r	clav_elev_r	scapula_abduction_r	scapula_elevation_r	scapula_upward_rot_r	scapula_winging_r	shoulder_elv_r	plane_of_elev_r	axial_rot_r	elbow_flexion_r	pro_sup_r	wrist_flex_r	wrist_dev_r	clav_prot_l	clav_elev_l	scapula_abduction_l	scapula_elevation_l	scapula_upward_rot_l	scapula_winging_l	shoulder_elv_l	plane_of_elev_l	axial_rot_l	elbow_flexion_l	pro_sup_l	wrist_flex_l	wrist_dev_l
      3.82000000	    -37.42389090	     -9.09691046	     14.16507547	   -251.15149754	    834.65074680	      6.47984386	      9.19665172	    -45.00000000	     38.66536975	    -45.00000000	    -45.00000000	   2776.90936795	  -2265.75666488	    148.95446780	   -104.59420375	   1104.71753192	    152.31049651	     13.34813744	      4.81062403	     14.48683654	     37.78807557	    -36.26165660	    -45.00000000	    -45.00000000	   -993.53693842	   2063.46823686	    141.73411979	    152.36924276	   1102.60852257	    173.81790056	     -1.99086747	    -10.57253373
      3.83000000	    -37.45582703	     -9.34531491	     14.21415962	   -251.02856803	    833.96326193	      6.41996038	      9.19171316	    -45.00000000	     38.74480107	    -45.00000000	    -45.00000000	   2776.94223954	  -2265.78287332	    149.09746551	   -104.37537949	   1104.76802797	    152.35413674	     13.11184237	      4.69003732	     14.72143196	     37.68886941	    -36.02900939	    -45.00000000	    -45.00000000	   -993.78358518	   2063.49920348	    141.81536563	    152.68758775	   1102.62476486	    173.64415851	     -1.96302947	    -10.60885605
      3.84000000	    -37.46197275	     -9.57867875	     14.28161865	   -250.69761256	    833.25745555	      6.36195491	      9.26076145	    -45.00000000	     38.90636901	    -45.00000000	    -45.00000000	   2776.95940705	  -2265.82735853	    149.17394547	   -104.22170420	   1104.78408553	    152.48283015	     13.18988758	      4.81097510	     14.51161542	     37.67357818	    -35.86479142	    -45.00000000	    -45.00000000	   -993.90084571	   2063.52408565	    141.65742575	    153.07594865	   1102.56521753	    173.43272404	     -1.94385903	    -10.66685374
      3.85000000	    -37.56864002	     -9.66624940	     14.24688798	   -250.20841947	    832.54587720	      6.31422814	      9.30740574	    -45.00000000	     38.83159089	    -45.00000000	    -45.00000000	   2776.99238179	  -2265.90401585	    149.18226799	   -104.16032022	   1104.81817615	    152.69421883	     13.12606838	      4.86564862	     14.60213916	     37.64766566	    -35.93855601	    -45.00000000	    -45.00000000	   -994.01137501	   2063.44412163	    141.61235690	    153.44493602	   1102.56892460	    173.14261923	     -1.96142391	    -10.70580844
      3.86000000	    -37.69602085	     -9.86558194	     14.21136595	   -249.61426731	    831.83872185	      6.28491276	      9.32586924	    -45.00000000	     38.87912267	    -45.00000000	    -45.00000000	   2777.01862150	  -2265.98219009	    149.18610990	   -104.14669411	   1104.93589659	    152.96777622	     13.11275469	      4.93151840	     14.51122483	     37.64733779	    -35.85567740	    -45.00000000	    -45.00000000	   -994.09364328	   2063.46133903	    141.51892130	    153.89316438	   1102.59819065	    172.79238391	     -1.93687827	    -10.74795738
      3.87000000	    -37.82585514	    -10.07608379	     14.20813236	   -248.96935541	    831.14286953	      6.27806631	      9.37438457	    -45.00000000	     38.87980955	    -45.00000000	    -45.00000000	   2777.08375528	  -2266.05585531	    149.18990074	   -104.16225527	   1104.98359226	    153.27973316	     13.08037671	      4.98716715	     14.49447985	     37.61969299	    -35.80778046	    -45.00000000	    -45.00000000	   -994.20216385	   2063.46485716	    141.44196079	    154.37991451	   1102.55971173	    172.38379591	     -1.91110546	    -10.80559261
      3.88000000	    -37.93030450	    -10.21748559	     14.20988855	   -248.32617847	    830.46718602	      6.29391406	      9.35391151	    -45.00000000	     38.89754968	    -45.00000000	    -45.00000000	   2777.15154834	  -2266.08027006	    149.20631249	   -104.17372965	   1105.02714258	    153.61339042	     13.05319121	      5.03874911	     14.52922666	     37.64189691	    -35.84513478	    -45.00000000	    -45.00000000	   -994.27795544	   2063.46528595	    141.31780089	    154.84047916	   1102.54517613	    171.92223999	     -1.86891722	    -10.86415741
      3.89000000	    -38.09263110	    -10.19391983	     14.11949306	   -247.73789169	    829.83018013	      6.32826739	      9.25861983	    -45.00000000	     38.68485716	    -45.00000000	    -45.00000000	   2777.19490026	  -2266.12093699	    149.23709250	   -104.20340730	   1104.99812230	    153.98862209	     13.02418628	      5.09407263	     14.71021362	     37.70616628	    -36.08667667	    -45.00000000	    -45.00000000	   -994.24858033	   2063.26513037	    141.21675835	    155.21553734	   1102.50079466	    171.37487166	     -1.83852433	    -10.93317519
      3.90000000	    -38.22162343	    -10.32882177	     14.07316053	   -247.22982614	    829.23474550	      6.37442782	      9.24178899	    -45.00000000	     38.67185585	    -45.00000000	    -45.00000000	   2777.25059056	  -2266.16540780	    149.15268478	   -104.18858678	   1105.04204730	    154.42240869	     12.98211803	      5.13038572	     14.65216841	     37.69682530	    -36.15469932	    -45.00000000	    -45.00000000	   -994.30689170	   2063.28403346	    141.17468991	    155.68230677	   1102.48727578	    170.74332115	     -1.78083508	    -11.00039337
      3.91000000	    -38.34821407	    -10.38241437	     14.04646395	   -246.83118059	    828.70289688	      6.42268536	      9.06979894	    -45.00000000	     38.51950871	    -45.00000000	    -45.00000000	   2777.38244187	  -2266.13323321	    149.24155207	   -104.19641929	   1105.01935191	    154.84201681	     12.93386268	      5.18152643	     14.98313937	     37.80733541	    -36.34433198	    -45.00000000	    -45.00000000	   -994.23254566	   2063.13906705	    141.05783855	    155.97415114	   1102.39156008	    170.12607360	     -1.72483530	    -11.08003823
      3.92000000	    -38.44055016	    -10.38213972	     13.98563165	   -246.54483015	    828.24341671	      6.46382628	      9.00587118	    -45.00000000	     38.43080440	    -45.00000000	    -45.00000000	   2777.36869266	  -2266.18603986	    149.17602616	   -104.19627739	   1104.98675184	    155.28887937	     12.88919481	      5.22226939	     14.93766002	     37.80695916	    -36.42773105	    -45.00000000	    -45.00000000	   -994.31582641	   2063.10350368	    141.02343005	    156.28410556	   1102.36316985	    169.51202606	     -1.65335060	    -11.13469636
      3.93000000	    -38.51054119	    -10.53362742	     14.05443831	   -246.36288828	    827.86476768	      6.48966644	      8.96596625	    -45.00000000	     38.38328114	    -45.00000000	    -45.00000000	   2777.42986884	  -2266.17959155	    149.26938438	   -104.22217165	   1104.97409655	    155.73255843	     12.82789799	      5.27247974	     14.99854525	     37.83104426	    -36.34024548	    -45.00000000	    -45.00000000	   -994.30939125	   2063.14680675	    140.88887654	    156.63028902	   1102.24290097	    168.97626536	     -1.57039896	    -11.18921222
      3.94000000	    -38.62142094	    -10.36661974	     13.77937101	   -246.26506054	    827.56734830	      6.49478710	      8.98239899	    -45.00000000	     38.36224453	    -45.00000000	    -45.00000000	   2777.36985028	  -2266.22619006	    149.07367844	   -104.25200835	   1105.08601495	    156.20501593	     12.75012638	      5.30478956	     14.88518000	     37.81254151	    -36.48795104	    -45.00000000	    -45.00000000	   -994.36650305	   2063.15071400	    140.93916658	    156.90858805	   1102.43545855	    168.46634706	     -1.58075304	    -11.16117101
      3.95000000	    -38.63502651	    -10.60774984	     13.89436083	   -246.22600252	    827.35076729	      6.47665410	      8.87436107	    -45.00000000	     38.40668723	    -45.00000000	    -45.00000000	   2777.48443713	  -2266.15971326	    149.25844426	   -104.36978668	   1105.05652680	    156.73781334	     12.69200780	      5.34789101	     15.01801281	     37.84218207	    -36.24918172	    -45.00000000	    -45.00000000	   -994.28309046	   2063.16633175	    140.71392828	    157.26771051	   1102.26060572	    168.02224494	     -1.50239290	    -11.18710598
      3.96000000	    -38.73983623	    -10.33327229	     13.67190138	   -246.21549300	    827.20827427	      6.43763429	      9.01135268	    -45.00000000	     38.14775600	    -45.00000000	    -45.00000000	   2777.30033224	  -2266.27526524	    148.94348481	   -104.51211725	   1105.03344548	    157.24510802	     12.62219808	      5.41245925	     14.81270329	     37.80874953	    -36.53145118	    -45.00000000	    -45.00000000	   -994.42354031	   2063.22432948	    140.89108667	    157.53200359	   1102.44167401	    167.68253450	     -1.53887665	    -11.11466902
      3.97000000	    -38.72627191	    -10.52444543	     13.74255983	   -246.20276395	    827.11362495	      6.37839525	      8.89684544	    -45.00000000	     38.33527633	    -45.00000000	    -45.00000000	   2777.44238468	  -2266.16644310	    149.13720447	   -104.67952293	   1105.08837758	    157.85566165	     12.56363860	      5.42069010	     14.95484151	     37.83733938	    -36.31963670	    -45.00000000	    -45.00000000	   -994.31835596	   2063.28708529	    140.63391435	    157.92621332	   1102.36898585	    167.41336403	     -1.50076893	    -11.08972028
      3.98000000	    -38.73389716	    -10.54546741	     13.71566118	   -246.16190286	    827.06468673	      6.31021421	      8.93503706	    -45.00000000	     38.18760959	    -45.00000000	    -45.00000000	   2777.35786565	  -2266.22709346	    148.91872980	   -104.94701654	   1104.96470753	    158.36576146	     12.48844034	      5.53115760	     14.88534404	     37.77868316	    -36.39863677	    -45.00000000	    -45.00000000	   -994.33633472	   2063.19915715	    140.65733649	    158.27995183	   1102.28584807	    167.28435233	     -1.46144700	    -11.03133598
      3.99000000	    -38.73643032	    -10.59181025	     13.63013310	   -246.06264934	    827.03805462	      6.23282512	      8.87893913	    -45.00000000	     38.33226738	    -45.00000000	    -45.00000000	   2777.52419013	  -2266.15737086	    149.05845156	   -105.16291486	   1105.06081267	    158.92103195	     12.43782714	      5.50443572	     14.98615019	     37.84254077	    -36.22781586	    -45.00000000	    -45.00000000	   -994.34403816	   2063.30383730	    140.46308267	    158.68102297	   1102.37026302	    167.23056180	     -1.49616820	    -10.95857022
      4.00000000	    -38.75309049	    -10.48959534	     13.56930865	   -245.88517669	    827.02578323	      6.16003884	      8.93258058	    -45.00000000	     38.27948616	    -45.00000000	    -45.00000000	   2777.39580106	  -2266.23579928	    148.88481496	   -105.47866232	   1105.06411880	    159.49527246	     12.36218520	      5.57524958	     14.90433153	     37.75436984	    -36.44460758	    -45.00000000	    -45.00000000	   -994.38003373	   2063.20214626	    140.46349547	    159.14896791	   1102.38528115	    167.23870243	     -1.50603009	    -10.88537528
